<svg xmlns="http://www.w3.org/2000/svg" viewBox="0 0 512 512" role="img" aria-labelledby="title">
  <title id="title">Apparel Operations Demo</title>
  <rect width="512" height="512" rx="104" fill="#111827"/>
  <path fill="#f8fafc" d="M154 174c0-17.7 14.3-32 32-32h140c17.7 0 32 14.3 32 32v36h-34v-32c0-2.2-1.8-4-4-4H192c-2.2 0-4 1.8-4 4v156c0 2.2 1.8 4 4 4h128c2.2 0 4-1.8 4-4v-32h34v36c0 17.7-14.3 32-32 32H186c-17.7 0-32-14.3-32-32V174Z"/>
  <path fill="#38bdf8" d="M214 232h188v48H214z"/>
  <path fill="#f8fafc" d="m382 206 66 50-66 50v-32h-52v-36h52v-32Z"/>
</svg>
